<?xml version="1.0" encoding="UTF-8" standalone="no"?>
<!-- Generator: Adobe Illustrator 19.0.0, SVG Export Plug-In . SVG Version: 6.00 Build 0)  -->

<svg
   xmlns:dc="http://purl.org/dc/elements/1.1/"
   xmlns:cc="http://creativecommons.org/ns#"
   xmlns:rdf="http://www.w3.org/1999/02/22-rdf-syntax-ns#"
   xmlns:svg="http://www.w3.org/2000/svg"
   xmlns="http://www.w3.org/2000/svg"
   xmlns:sodipodi="http://sodipodi.sourceforge.net/DTD/sodipodi-0.dtd"
   xmlns:inkscape="http://www.inkscape.org/namespaces/inkscape"
   version="1.1"
   id="Capa_1"
   x="0px"
   y="0px"
   viewBox="0 0 512 512"
   style="enable-background:new 0 0 512 512;"
   xml:space="preserve"
   sodipodi:docname="milligram-plus.svg"
   inkscape:version="0.92.4 (5da689c313, 2019-01-14)"><metadata
   id="metadata53"><rdf:RDF><cc:Work
       rdf:about=""><dc:format>image/svg+xml</dc:format><dc:type
         rdf:resource="http://purl.org/dc/dcmitype/StillImage" /><dc:title /></cc:Work></rdf:RDF></metadata><defs
   id="defs51" /><sodipodi:namedview
   pagecolor="#ffffff"
   bordercolor="#666666"
   borderopacity="1"
   objecttolerance="10"
   gridtolerance="10"
   guidetolerance="10"
   inkscape:pageopacity="0"
   inkscape:pageshadow="2"
   inkscape:window-width="1920"
   inkscape:window-height="1001"
   id="namedview49"
   showgrid="false"
   inkscape:zoom="0.35355339"
   inkscape:cx="512.43035"
   inkscape:cy="64.746526"
   inkscape:window-x="-9"
   inkscape:window-y="-9"
   inkscape:window-maximized="1"
   inkscape:current-layer="Capa_1" />








<g
   id="g18">
</g>
<g
   id="g20">
</g>
<g
   id="g22">
</g>
<g
   id="g24">
</g>
<g
   id="g26">
</g>
<g
   id="g28">
</g>
<g
   id="g30">
</g>
<g
   id="g32">
</g>
<g
   id="g34">
</g>
<g
   id="g36">
</g>
<g
   id="g38">
</g>
<g
   id="g40">
</g>
<g
   id="g42">
</g>
<g
   id="g44">
</g>
<g
   id="g46">
</g>
<g
   id="g980"
   transform="translate(0.53442595,0.07397597)"><path
     id="path904"
     d="m 410.639,329.14 c -2.28,-13.01 -6.241,-25.85 -11.892,-38.22 L 269.675,8.76 C 267.234,3.42 261.903,0 256.032,0 250.161,0 244.83,3.42 242.39,8.76 l -78.594,171.81 -21.604,47.24 -28.875,63.11 C 66.05,394.292 141.595,512 255.232,512 h 1.6 c 97.984,0 170.344,-88.722 153.807,-182.86 z"
     style="fill:#91e0ff"
     inkscape:connector-curvature="0" /><g
     id="g910">
	<path
   id="path906"
   d="m 410.639,329.14 c -2.28,-13.01 -6.241,-25.85 -11.892,-38.22 L 269.675,8.76 C 267.234,3.42 261.903,0 256.032,0 256.021,0 256.01,0.001 256,0.001 V 512 h 0.833 c 97.983,0 170.343,-88.722 153.806,-182.86 z"
   style="fill:#61cef3"
   inkscape:connector-curvature="0" />
	<path
   id="path908"
   d="M 410.639,329.14 C 309.71,315.18 221.368,259.935 163.796,180.57 l -21.604,47.24 -28.875,63.11 C 66.05,394.292 141.595,512 255.232,512 h 1.6 c 97.984,0 170.344,-88.722 153.807,-182.86 z"
   style="fill:#61cef3"
   inkscape:connector-curvature="0" />
</g><g
     id="g916">
	<path
   id="path912"
   d="M 410.639,329.14 C 354.071,321.316 301.459,300.52 256,269.78 V 512 h 0.833 c 97.983,0 170.343,-88.722 153.806,-182.86 z"
   style="fill:#23a3e1"
   inkscape:connector-curvature="0" />
	<path
   id="path914"
   d="m 142.193,227.81 -28.875,63.11 C 66.05,394.292 141.595,512 255.232,512 h 1.6 c 46.698,0 90.116,-20.53 119.571,-55.76 C 259.675,424.629 173.602,336.044 142.193,227.81 Z"
   style="fill:#23a3e1"
   inkscape:connector-curvature="0" />
</g><path
     id="path918"
     d="M 256,396.058 V 512 h 0.833 c 46.698,0 90.116,-20.53 119.571,-55.76 C 331.207,444 290.611,423.214 256,396.058 Z"
     style="fill:#1f84bd"
     inkscape:connector-curvature="0" /><g
     id="g920">
</g><g
     id="g922">
</g><g
     id="g924">
</g><g
     id="g926">
</g><g
     id="g928">
</g><g
     id="g930">
</g><g
     id="g932">
</g><g
     id="g934">
</g><g
     id="g936">
</g><g
     id="g938">
</g><g
     id="g940">
</g><g
     id="g942">
</g><g
     id="g944">
</g><g
     id="g946">
</g><g
     id="g948">
</g></g><path
   style="fill:#ffffff;stroke-width:1.33333337"
   inkscape:connector-curvature="0"
   d="m -681.57717,279.38179 c -53.91146,0 -102.95834,-25.06251 -134.58334,-68.76563 -20.625,-28.54688 -31.52083,-62.15626 -31.52083,-97.25001 l 0.0677,-4.93229 43.0573,1.27083 -0.0625,3.66146 c 0,25.96354 8.07291,50.87501 23.35937,72.01564 23.40104,32.35937 59.72395,50.92186 99.68229,50.92186 z M -798.03551,73.793233 -838.83238,59.928646 c 5.31771,-15.588535 12.9375,-30.333335 22.67187,-43.791669 l 34.90105,25.234374 c -7.23438,10.010427 -12.875,20.906255 -16.77605,32.421882 z m 0,0"
   id="path1154" /><path
   style="fill:#ffffff;stroke-width:1.01022172"
   inkscape:connector-curvature="0"
   d="m 248.23135,479.52697 c -36.60267,5.28886 -69.54202,-10.6412 -96.24362,-43.73486 -17.12416,-21.25347 -25.61279,-47.47205 -29.92882,-75.96211 -0.072,-0.47524 -0.14242,-0.95115 -0.21138,-1.42771 -0.002,-0.0161 -0.005,-0.0322 -0.007,-0.0484 l 0.0361,-1.56875 -0.92006,-19.47277 2.02018,-28.30575 v 0 l 0.80633,-6.08134 c 3.10715,21.50374 37.17864,92.39283 50.08721,108.40246 19.46771,24.14219 47.59073,70.57692 74.36108,68.19919 0.40258,-0.0358 -1.2068,0.14063 0,0 z"
   id="path1154-7"
   sodipodi:nodetypes="ccsscccccccsc" /></svg>