<?xml version="1.0" encoding="UTF-8" standalone="no"?>
<svg
   xmlns:dc="http://purl.org/dc/elements/1.1/"
   xmlns:cc="http://creativecommons.org/ns#"
   xmlns:rdf="http://www.w3.org/1999/02/22-rdf-syntax-ns#"
   xmlns:svg="http://www.w3.org/2000/svg"
   xmlns="http://www.w3.org/2000/svg"
   xmlns:sodipodi="http://sodipodi.sourceforge.net/DTD/sodipodi-0.dtd"
   xmlns:inkscape="http://www.inkscape.org/namespaces/inkscape"
   enable-background="new 0 0 512 512"
   id="Layer_1"
   version="1.1"
   viewBox="0 0 512 512"
   xml:space="preserve"
   sodipodi:docname="search.svg"
   inkscape:version="0.92.4 (5da689c313, 2019-01-14)"><metadata
     id="metadata13"><rdf:RDF><cc:Work
         rdf:about=""><dc:format>image/svg+xml</dc:format><dc:type
           rdf:resource="http://purl.org/dc/dcmitype/StillImage" /></cc:Work></rdf:RDF></metadata><defs
     id="defs11" /><sodipodi:namedview
     pagecolor="#ffffff"
     bordercolor="#666666"
     borderopacity="1"
     objecttolerance="10"
     gridtolerance="10"
     guidetolerance="10"
     inkscape:pageopacity="0"
     inkscape:pageshadow="2"
     inkscape:window-width="1920"
     inkscape:window-height="1017"
     id="namedview9"
     showgrid="false"
     inkscape:zoom="0.921875"
     inkscape:cx="257.23932"
     inkscape:cy="197.28477"
     inkscape:window-x="-8"
     inkscape:window-y="-8"
     inkscape:window-maximized="1"
     inkscape:current-layer="Layer_1" /><g
     id="g6"><path
       d="M202.7,405.5c-54.2,0-105.1-21.1-143.4-59.4c-79.1-79.1-79.1-207.7,0-286.8C97.7,21,148.6,0,202.7,0   C256.9,0,307.8,21,346.1,59.3c38.3,38.3,59.4,89.2,59.4,143.4c0,54.2-21.1,105.1-59.4,143.4C307.8,384.4,256.9,405.5,202.7,405.5z    M202.7,21.1c-48.5,0-94.2,18.9-128.5,53.2c-70.8,70.8-70.8,186.1,0,257c34.3,34.3,79.9,53.2,128.5,53.2   c48.5,0,94.2-18.9,128.5-53.2c34.3-34.3,53.2-79.9,53.2-128.5c0-48.5-18.9-94.2-53.2-128.5C296.9,39.9,251.3,21.1,202.7,21.1z"
       fill="#6A6E7C"
       id="path2"
       style="fill:#f9f9f9" /><path
       d="M501.5,512c-2.7,0-5.4-1-7.5-3.1L331.2,346.1c-4.1-4.1-4.1-10.8,0-14.9c4.1-4.1,10.8-4.1,14.9,0L509,494   c4.1,4.1,4.1,10.8,0,14.9C506.9,511,504.2,512,501.5,512z"
       fill="#6A6E7C"
       id="path4"
       style="fill:#f9f9f9" /></g><path
     style="fill:#f9f9f9;fill-opacity:0;stroke:none;stroke-width:4.10033894;stroke-linecap:butt;stroke-linejoin:round;stroke-miterlimit:4;stroke-dasharray:none;stroke-dashoffset:0;stroke-opacity:1;paint-order:stroke markers fill"
     d="m 414.0546,428.34235 c -48.63658,-48.56232 -83.4708,-84.16742 -84.37019,-86.23729 -1.32161,-3.04161 -1.31914,-4.03447 0.018,-7.23472 1.80735,-4.3256 4.52181,-6.05341 9.51016,-6.05341 3.29607,0 10.23672,6.65239 87.4276,83.79661 46.11602,46.08813 84.12888,84.89491 84.47302,86.23728 1.65496,6.4554 -2.97571,12.20339 -9.83126,12.20339 -4.36617,0 -4.81959,-0.42995 -87.22734,-82.71186 z"
     id="path4523"
     inkscape:connector-curvature="0" /></svg>