<svg viewBox="0 0 1024 1024"
    xmlns="http://www.w3.org/2000/svg" fill="#b0b0b0" stroke="#b0b0b0">
    <g id="SVGRepo_bgCarrier" stroke-width="0"></g>
    <g id="SVGRepo_tracerCarrier" stroke-linecap="round" stroke-linejoin="round"></g>
    <g id="SVGRepo_iconCarrier">
        <path fill="#b3b2b2" d="M768 832a128 128 0 0 1-128 128H192A128 128 0 0 1 64 832V384a128 128 0 0 1 128-128v64a64 64 0 0 0-64 64v448a64 64 0 0 0 64 64h448a64 64 0 0 0 64-64h64z"></path>
        <path fill="#b3b2b2" d="M384 128a64 64 0 0 0-64 64v448a64 64 0 0 0 64 64h448a64 64 0 0 0 64-64V192a64 64 0 0 0-64-64H384zm0-64h448a128 128 0 0 1 128 128v448a128 128 0 0 1-128 128H384a128 128 0 0 1-128-128V192A128 128 0 0 1 384 64z"></path>
    </g>
</svg>