<?xml version="1.0" encoding="utf-8"?>
<!-- Generator: Adobe Illustrator 27.9.0, SVG Export Plug-In . SVG Version: 6.00 Build 0)  -->
<svg version="1.1" id="Layer_1" xmlns="http://www.w3.org/2000/svg" xmlns:xlink="http://www.w3.org/1999/xlink" x="0px" y="0px"
	 viewBox="0 0 245.9 245.9" style="enable-background:new 0 0 245.9 245.9;" xml:space="preserve">
<style type="text/css">
	.st0{fill:#FFFFFF;}
</style>
<path class="st0" d="M119.9,188.9c-38.1,0-68.9-30.9-68.9-69c0-6.6,1-13.2,2.8-19.5c2.7-9.1,7.2-17.5,13.3-24.7
	c2-2.7,5.7-3.2,8.4-1.2s3.2,5.7,1.2,8.4c-0.1,0.2-0.3,0.4-0.4,0.5c-1.6,1.9-3.1,3.9-4.4,6c-1.5,2.4-2.8,4.8-4,7.4
	c-1,2.3-1.9,4.6-2.6,7s-1.2,4.8-1.6,7.3C63.2,114,63,117,63,120c0,31.4,25.6,56.8,57,56.8s56.8-25.6,56.8-57S151.2,63,119.8,63
	c-6.1,0-12.3,1-18.1,3c-3,1.5-6.6,0.3-8.1-2.7c-1.5-3-0.3-6.6,2.7-8.1c0.5-0.3,1.1-0.4,1.6-0.5c36.1-12.2,75.2,7.2,87.3,43.3
	s-7.2,75.2-43.3,87.3C134.9,187.6,127.4,188.9,119.9,188.9L119.9,188.9z"/>
<path class="st0" d="M119.9,57v125.9c34.8,0,62.9-28.2,62.9-62.9C182.8,85.2,154.7,57,119.9,57L119.9,57z"/>
<path class="st0" d="M119.9,36.8c-3.3,0-6-2.7-6-6V8c0-3.3,2.7-6,6-6s6,2.7,6,6v22.8C125.9,34.1,123.2,36.8,119.9,36.8z
	 M119.9,237.8c-3.3,0-6-2.7-6-6V209c0-3.3,2.7-6,6-6s6,2.7,6,6v22.8C125.9,235.2,123.2,237.8,119.9,237.8L119.9,237.8z M231.9,125.9
	h-22.8c-3.3,0-6-2.7-6-6s2.7-6,6-6h22.8c3.3,0,6,2.7,6,6C237.9,123.2,235.2,125.9,231.9,125.9z M30.8,125.9H8c-3.3,0-6-2.7-6-6
	s2.7-6,6-6h22.8c3.3,0,6,2.7,6,6C36.8,123.2,34.1,125.9,30.8,125.9z"/>
<path class="st0" d="M183,56.9l16.1-16.1"/>
<path class="st0" d="M182.9,62.9c-3.3,0-6-2.7-6-6c0-1.6,0.6-3.1,1.7-4.2l16.1-16.1c2.4-2.3,6.2-2.1,8.5,0.3c2.1,2.3,2.1,5.9,0,8.2
	l-16.1,16.1C186,62.3,184.5,62.9,182.9,62.9z"/>
<path class="st0" d="M40.8,199.1L56.9,183"/>
<path class="st0" d="M40.8,205.1c-3.3,0-6-2.7-6-6c0-1.6,0.6-3.1,1.8-4.2l16.1-16.1c2.3-2.4,6.1-2.6,8.5-0.3s2.6,6.1,0.3,8.5
	c-0.1,0.1-0.2,0.2-0.3,0.3l-16.2,16C43.9,204.4,42.4,205.1,40.8,205.1L40.8,205.1z"/>
<path class="st0" d="M183,183l16.1,16.1"/>
<path class="st0" d="M199.1,205.1c-1.6,0-3.1-0.6-4.2-1.8l-16.1-16.1c-2.4-2.3-2.6-6.1-0.3-8.5s6.1-2.6,8.5-0.3
	c0.1,0.1,0.2,0.2,0.3,0.3l16.1,16.1c2.3,2.3,2.3,6.1,0,8.5C202.2,204.4,200.7,205.1,199.1,205.1L199.1,205.1z"/>
<path class="st0" d="M40.8,40.8l16.1,16.1"/>
<path class="st0" d="M56.9,62.9c-1.6,0-3.1-0.6-4.2-1.8l-16.1-16c-2.3-2.4-2.1-6.2,0.3-8.5c2.3-2.1,5.9-2.1,8.2,0l16.1,16.1
	c2.3,2.4,2.3,6.1,0,8.5C60,62.3,58.5,62.9,56.9,62.9z"/>
</svg>
