<svg width="62" height="62" xmlns="http://www.w3.org/2000/svg">

 <g>
  <title>Layer 1</title>
  <g stroke="null" id="svg_2" stroke-width="0.381" fill="#fff" word-spacing="0" letter-spacing="0" font-family="Eras Medium ITC" font-size="15.247" font-weight="400" aria-label="Evodim">
   <path stroke="null" id="svg_4" fill="none" d="m-40.711,14.383l-6.627,-0.041"/>
  </g>
  <rect stroke="null" id="svg_5" paint-order="stroke markers fill" fill="#8c0736" ry="1.392" y="3.024" x="1.866" height="11.64" width="12.267"/>
  <rect stroke="null" id="svg_6" paint-order="stroke markers fill" fill="#c70039" ry="1.392" y="3.028" x="17.852" height="11.64" width="12.267"/>
  <rect stroke="null" id="svg_7" paint-order="stroke markers fill" fill="#ff5733" ry="1.392" y="3.317" x="33.781" height="11.64" width="12.267"/>
  <rect stroke="null" id="svg_8" paint-order="stroke markers fill" fill="#ffc300" ry="1.392" y="3.279" x="48.866" height="11.64" width="12.267"/>
  <rect stroke="null" id="svg_9" paint-order="stroke markers fill" fill="#8c0736" ry="1.392" y="17.806" x="17.666" height="11.64" width="12.267"/>
  <rect stroke="null" id="svg_10" paint-order="stroke markers fill" fill="#c70039" ry="1.392" y="17.81" x="33.653" height="11.64" width="12.267"/>
  <rect stroke="null" id="svg_11" paint-order="stroke markers fill" fill="#ff5733" ry="1.392" y="18.099" x="49.054" height="11.64" width="12.267"/>
  <rect stroke="null" id="svg_12" paint-order="stroke markers fill" fill="#8c0736" ry="1.392" y="32.832" x="33.518" height="11.64" width="12.267"/>
  <rect stroke="null" id="svg_13" paint-order="stroke markers fill" fill="#c70039" ry="1.392" y="32.836" x="48.976" height="11.64" width="12.267"/>
  <rect stroke="null" id="svg_14" paint-order="stroke markers fill" fill="#8c0736" ry="1.392" y="47.614" x="49.319" height="11.64" width="12.267"/>
  <rect stroke="null" id="svg_15" paint-order="markers stroke fill" fill="none" ry="2.728" y="19.967" x="-47.471" height="5.936" width="10.133"/>
 </g>
</svg>