<?xml version="1.0" encoding="iso-8859-1"?>
<!-- Generator: Adobe Illustrator 19.0.0, SVG Export Plug-In . SVG Version: 6.00 Build 0)  -->
<svg version="1.1" id="Capa_1" xmlns="http://www.w3.org/2000/svg" xmlns:xlink="http://www.w3.org/1999/xlink" x="0px" y="0px"
	 viewBox="0 0 512.001 512.001" style="enable-background:new 0 0 512.001 512.001;" xml:space="preserve">
<path style="fill:#E4EAF5;" d="M485.501,201.198l-27.835-1.986c-4.533-16.13-10.955-31.466-19.001-45.767l18.267-21.121
	c9.784-11.312,9.171-28.26-1.405-38.835L418.39,56.352c-10.584-10.584-27.549-11.189-38.86-1.384l-21.106,18.296
	c-14.307-8.037-29.648-14.447-45.781-18.968l-2.016-27.828c-1.081-14.917-13.498-26.467-28.454-26.467h-52.519
	c-14.969,0-27.392,11.569-28.457,26.499l-1.986,27.835c-16.074,4.518-31.359,10.911-45.618,18.919L132.47,54.956
	c-11.311-9.799-28.271-9.192-38.853,1.39L56.481,93.482c-10.579,10.578-11.189,27.531-1.399,38.843l18.264,21.103
	c-8.048,14.301-14.472,29.637-19.007,45.766l-27.849,1.995C11.564,202.259,0,214.68,0,229.646v52.519
	c0,14.96,11.556,27.379,26.477,28.455l27.813,2.006c4.52,16.134,10.928,31.475,18.963,45.783l-18.299,21.124
	c-9.798,11.311-9.192,28.271,1.391,38.852l37.136,37.136c10.578,10.579,27.531,11.189,38.843,1.399l21.103-18.264
	c14.301,8.048,29.637,14.472,45.766,19.006l1.995,27.849c1.069,14.927,13.491,26.49,28.456,26.49h52.519
	c14.96,0,27.379-11.556,28.455-26.477l2.006-27.813c16.19-4.535,31.582-10.973,45.932-19.046l21.121,18.267
	c11.312,9.784,28.26,9.171,38.835-1.405l37.137-37.136c10.584-10.584,11.188-27.549,1.384-38.86l-18.296-21.106
	c8.037-14.307,14.447-29.648,18.968-45.781l27.828-2.016C500.45,309.547,512,297.13,512,282.173v-52.519
	C512,214.686,500.432,202.262,485.501,201.198z M256.001,353.871c-54.052,0-97.87-43.818-97.87-97.87s43.817-97.87,97.87-97.87
	c54.052,0,97.87,43.817,97.87,97.87C353.87,310.053,310.052,353.871,256.001,353.871z"/>
<path style="fill:#D3E0F4;" d="M485.501,201.198l-27.835-1.986c-4.533-16.129-10.955-31.466-19.001-45.767l18.267-21.121
	c9.784-11.312,9.17-28.26-1.405-38.835L418.39,56.352c-10.584-10.584-27.549-11.189-38.86-1.384l-17.857,15.479
	c9.347,25.757,14.45,53.549,14.45,82.534c0,36.25-7.986,70.629-22.272,101.497c0.008,0.507,0.02,1.013,0.02,1.523
	c0,49.074-36.12,89.709-83.224,96.778c-38.849,26.587-85.839,42.149-136.469,42.149c-28.24,0-55.342-4.855-80.538-13.747
	c-8.395,11.259-7.374,27.123,2.706,37.203l37.136,37.136c10.578,10.579,27.531,11.189,38.843,1.399l21.103-18.264
	c14.301,8.048,29.637,14.472,45.766,19.006l1.995,27.849c1.069,14.927,13.491,26.49,28.456,26.49h52.519
	c14.96,0,27.379-11.556,28.455-26.477l2.006-27.813c16.19-4.535,31.582-10.973,45.932-19.046l21.121,18.267
	c11.313,9.784,28.26,9.171,38.835-1.405l37.137-37.136c10.584-10.584,11.188-27.549,1.384-38.86l-18.296-21.106
	c8.037-14.307,14.446-29.648,18.968-45.781l27.828-2.016c14.917-1.08,26.467-13.498,26.467-28.454v-52.519
	C512,214.685,500.432,202.262,485.501,201.198z"/>
<g>
	<path style="fill:#C7CFE2;" d="M256,107.541c-81.992,0-148.46,66.468-148.46,148.461c0,81.992,66.468,148.46,148.46,148.46
		s148.461-66.468,148.461-148.461C404.461,174.009,337.993,107.541,256,107.541z M256,353.871c-54.052,0-97.87-43.818-97.87-97.87
		s43.818-97.87,97.87-97.87s97.87,43.818,97.87,97.87S310.052,353.871,256,353.871z"/>
	<path style="fill:#C7CFE2;" d="M270.646,352.779c-4.778,0.717-9.668,1.091-14.646,1.091c-54.052,0-97.87-43.818-97.87-97.87
		s43.818-97.87,97.87-97.87c53.543,0,97.036,42.998,97.85,96.347c12.285-26.543,19.895-55.687,21.79-86.379
		c-27.026-36.722-70.546-60.557-119.64-60.557c-81.992,0-148.46,66.468-148.46,148.46c0,57.979,33.24,108.188,81.698,132.629
		C218.827,381.74,246.331,369.419,270.646,352.779L270.646,352.779z"/>
	<path style="fill:#C7CFE2;" d="M353.87,256.001c0.452-0.235-0.012-1.015-0.02-1.523C353.859,254.986,353.87,255.492,353.87,256.001
		L353.87,256.001z"/>
</g>
<path style="fill:#D3E0F4;" d="M353.851,254.478L353.851,254.478L353.851,254.478z"/>
<g>
	<path style="opacity:0.5;fill:#737E9B;enable-background:new    ;" d="M256,139.001c-64.617,0-117,52.383-117,117
		s52.383,117,117,117s117-52.383,117-117S320.618,139.001,256,139.001z M256,353.871c-54.052,0-97.87-43.818-97.87-97.87
		s43.818-97.87,97.87-97.87s97.87,43.818,97.87,97.87S310.052,353.871,256,353.871z"/>
	<path style="opacity:0.4;fill:#737E9B;enable-background:new    ;" d="M404.461,256.001c0-32.899-10.708-63.293-28.82-87.902
		c-1.896,30.692-9.505,59.836-21.79,86.379l0,0c0.008,0.507,0.471,1.287,0.02,1.523l0,0l0,0c0,49.074-36.12,89.709-83.224,96.778
		l0,0c-24.315,16.64-51.819,28.96-81.408,35.851c20.071,10.123,42.748,15.832,66.762,15.832
		C337.992,404.462,404.461,337.994,404.461,256.001z"/>
</g>
<g>
</g>
<g>
</g>
<g>
</g>
<g>
</g>
<g>
</g>
<g>
</g>
<g>
</g>
<g>
</g>
<g>
</g>
<g>
</g>
<g>
</g>
<g>
</g>
<g>
</g>
<g>
</g>
<g>
</g>
</svg>
