<?xml version="1.0" encoding="UTF-8"?>
<svg xmlns="http://www.w3.org/2000/svg" xmlns:xlink="http://www.w3.org/1999/xlink" width="92px" height="150px" viewBox="0 0 157 256" version="1.1">
<g id="surface1">
<path style=" stroke:none;fill-rule:nonzero;fill:rgb(56.862745%,87.843137%,100%);fill-opacity:1;" d="M 155.800781 164.699219 C 154.648438 158.199219 152.699219 151.75 149.851562 145.601562 L 85.300781 4.5 C 84.101562 1.851562 81.398438 0.101562 78.5 0.101562 C 75.601562 0.101562 72.898438 1.800781 71.699219 4.5 L 32.398438 90.398438 L 21.601562 114 L 7.148438 145.550781 C -16.5 197.25 21.300781 256.101562 78.101562 256.101562 L 78.898438 256.101562 C 127.898438 256.101562 164.050781 211.75 155.800781 164.648438 Z M 155.800781 164.699219 "/>
<path style=" stroke:none;fill-rule:nonzero;fill:rgb(38.039216%,80.784314%,95.294118%);fill-opacity:1;" d="M 155.800781 164.699219 C 154.648438 158.199219 152.699219 151.75 149.851562 145.601562 L 85.300781 4.5 C 84.101562 1.851562 81.398438 0.101562 78.5 0.101562 C 75.601562 0.101562 78.5 0.101562 78.5 0.101562 L 78.5 256.101562 L 78.898438 256.101562 C 127.898438 256.101562 164.050781 211.75 155.800781 164.648438 Z M 155.800781 164.699219 "/>
<path style=" stroke:none;fill-rule:nonzero;fill:rgb(38.039216%,80.784314%,95.294118%);fill-opacity:1;" d="M 155.800781 164.699219 C 105.351562 157.699219 61.148438 130.101562 32.398438 90.398438 L 21.601562 114 L 7.148438 145.550781 C -16.5 197.25 21.300781 256.101562 78.101562 256.101562 L 78.898438 256.101562 C 127.898438 256.101562 164.050781 211.75 155.800781 164.648438 Z M 155.800781 164.699219 "/>
<path style=" stroke:none;fill-rule:nonzero;fill:rgb(13.72549%,63.921569%,88.235294%);fill-opacity:1;" d="M 155.800781 164.699219 C 127.5 160.800781 101.199219 150.398438 78.5 135 L 78.5 256.101562 L 78.898438 256.101562 C 127.898438 256.101562 164.050781 211.75 155.800781 164.648438 Z M 155.800781 164.699219 "/>
<path style=" stroke:none;fill-rule:nonzero;fill:rgb(13.72549%,63.921569%,88.235294%);fill-opacity:1;" d="M 21.601562 114.050781 L 7.148438 145.601562 C -16.5 197.300781 21.300781 256.148438 78.101562 256.148438 L 78.898438 256.148438 C 102.25 256.148438 123.949219 245.898438 138.699219 228.25 C 80.351562 212.449219 37.300781 168.148438 21.601562 114.050781 Z M 21.601562 114.050781 "/>
<path style=" stroke:none;fill-rule:nonzero;fill:rgb(12.156863%,51.764706%,74.117647%);fill-opacity:1;" d="M 78.5 198.148438 L 78.5 256.101562 L 78.898438 256.101562 C 102.25 256.101562 123.949219 245.851562 138.699219 228.199219 C 116.101562 222.101562 95.800781 211.699219 78.5 198.101562 Z M 78.5 198.148438 "/>
<path style=" stroke:none;fill-rule:nonzero;fill:rgb(100%,100%,100%);fill-opacity:1;" d="M 74.351562 239.851562 C 56.050781 242.5 39.601562 234.550781 26.25 218 C 17.699219 207.351562 13.449219 194.25 11.300781 180 C 11.300781 179.75 11.25 179.5 11.199219 179.300781 L 11.199219 178.5 L 10.75 168.75 L 11.75 154.601562 L 12.148438 151.550781 C 13.699219 162.300781 30.75 197.75 37.199219 205.75 C 46.949219 217.800781 61 241.050781 74.398438 239.851562 C 74.601562 239.851562 73.800781 239.898438 74.398438 239.851562 Z M 74.351562 239.851562 "/>
</g>
</svg>
