<?xml version="1.0" encoding="iso-8859-1"?>
<!-- Uploaded to: SVG Repo, www.svgrepo.com, Generator: SVG Repo Mixer Tools -->
<!DOCTYPE svg PUBLIC "-//W3C//DTD SVG 1.1//EN" "http://www.w3.org/Graphics/SVG/1.1/DTD/svg11.dtd">
<svg fill="#000000" version="1.1" id="Capa_1" xmlns="http://www.w3.org/2000/svg" xmlns:xlink="http://www.w3.org/1999/xlink" 
	 width="800px" height="800px" viewBox="0 0 518.671 518.671"
	 xml:space="preserve">
<g>
	<g>
		<path d="M508.256,363.753h-29.264v-217.92c0-30.037-24.438-54.474-54.479-54.474H94.159c-30.04,0-54.479,24.437-54.479,54.474
			v217.92H10.417C4.673,363.753,0,368.427,0,374.169c0,29.303,23.84,53.143,53.143,53.143h412.382
			c29.305,0,53.146-23.84,53.146-53.143C518.672,368.427,514,363.753,508.256,363.753z M94.159,112.19h330.354
			c18.554,0,33.646,15.092,33.646,33.643v217.92H60.511v-217.92C60.511,127.282,75.606,112.19,94.159,112.19z M465.525,406.48
			H53.143c-13.854,0-26.16-8.906-30.588-21.895h473.562C491.689,397.572,479.381,406.48,465.525,406.48z"/>
		<path d="M83.597,343.193H435.08c5.744,0,10.416-4.674,10.416-10.418V143.16c0-5.743-4.672-10.416-10.416-10.416H83.597
			c-5.744,0-10.417,4.673-10.417,10.416v189.616C73.18,338.52,77.853,343.193,83.597,343.193z M94.012,322.359V153.577h330.652
			V322.36L94.012,322.359L94.012,322.359z"/>
	</g>
</g>
</svg>